<svg width="1047" height="287" viewBox="0 0 1047 287" fill="none" xmlns="http://www.w3.org/2000/svg">
<g clip-path="url(#clip0_35_276)">
<g clip-path="url(#clip1_35_276)">
<path d="M478.474 183.55C465.56 184.481 451.699 184.481 438.113 183.474C444.967 178.528 449.562 176.116 449.547 169.201L449.486 117.955H379.312L379.22 165.964C379.205 174.986 382.67 178.222 391.844 183.886L349.285 183.641C357.757 179.169 362.291 176.513 362.291 167.445V68.588C362.291 60.07 359.085 57.4749 350.247 52.1321C364.978 51.262 377.037 51.2773 391.661 51.9642C384.563 57.1544 379.388 57.826 379.373 65.367L379.251 107.911L449.531 108.079V67.0157C449.562 58.8488 445.593 57.2918 437.441 51.9947C452.264 51.2926 464.323 51.3078 479.36 52.1169C470.567 56.9407 466.293 58.2077 466.308 67.0615L466.369 167.537C466.369 175.307 469.819 178.177 478.474 183.565V183.55Z" fill="white"/>
<path d="M592.856 179.779C559.639 198.662 505.722 188.206 492.411 142.593C485.45 118.734 488.595 92.9359 504.394 73.1828C525.811 46.3924 563.867 39.9353 593.253 57.2307C614.471 69.7329 624.821 91.4857 625.752 115.773C626.76 141.983 615.952 166.651 592.856 179.779ZM558.677 178.497C577.026 178.604 591.406 169.842 599.588 154.103C613.143 128.03 610.197 95.0425 590.429 72.6027C579.377 60.0548 563.119 56.1163 546.679 59.1846C533.52 61.6423 520.423 71.0609 513.508 85.1201C502.456 107.606 503.906 141.22 522.132 161.98C531.551 172.712 543.412 178.421 558.677 178.512V178.497Z" fill="white"/>
<path d="M731.723 183.245C710.398 191.427 687.393 190.083 668.281 179.428C646.406 167.216 636.606 144.807 636.087 120.337C635.461 90.8751 651.474 63.9474 678.005 53.0786C704.75 42.1335 736.333 47.98 755.476 70.8472C783.472 104.308 775.58 166.422 731.723 183.245ZM745.126 155.813C758.803 131.022 757.002 98.9504 740.577 76.8769C729.708 62.2682 712.855 56.2537 695.194 58.6809C656.924 63.9626 644.116 114.307 660.755 149.615C668.739 166.56 683.623 176.803 700.826 178.161C718.335 179.55 735.707 172.895 745.126 155.813Z" fill="white"/>
<path d="M814.246 169.933C814.292 177.535 820.444 178.543 826.733 183.535C813.376 184.313 799.454 184.344 785.93 183.535C793.318 177.81 797.195 175.078 797.21 167.521L797.302 70.1145C797.302 60.8638 794.28 57.994 784.876 52.0558L844.38 52.1932C853.585 52.2085 864.347 55.5973 870.361 62.5888C878.513 72.0684 879.032 84.7538 875.124 97.4544C872.3 106.644 862.942 115.864 851.463 120.108C839.495 124.535 827.527 124.062 813.987 123.604L814.231 169.949L814.246 169.933ZM859.828 86.0971C859.95 72.0226 850.196 62.2071 837.083 62.2835L813.987 62.4208L814.109 112.246C822.841 112.765 831.282 113.116 839.434 111.895C852.135 109.987 859.721 99.4236 859.828 86.1124V86.0971Z" fill="white"/>
<path d="M1042.38 148.577C1042.05 170.178 1027.56 184.969 1006.83 186.954C993.581 188.221 980.24 186.191 968.058 180.649C967.875 171.765 967.722 165.171 969.371 156.393C976.805 170.987 985.811 177.719 1000.34 176.65C1011.49 175.826 1021.41 170.269 1024.42 160.622C1038.09 116.933 963.601 125.176 971.768 76.4953C974.118 62.5124 985.582 51.5826 1001.03 49.0944C1013.43 47.0946 1025.76 49.6439 1037.96 53.735C1038.52 62.7414 1039.87 70.0229 1037.04 79.5483C1030.86 65.0312 1023.42 57.9939 1009.27 59.0625C1000.02 59.7494 991.093 63.6115 988.33 72.5874C985.796 80.8154 987.796 91.562 996.299 96.9964L1024.91 115.254C1036.67 122.764 1042.61 133.755 1042.38 148.593V148.577Z" fill="white"/>
<path d="M938.276 183.886L896.846 183.931C903.349 178.482 909.745 176.467 909.745 168.407L909.638 66.1455C909.638 58.3756 903.792 57.3986 896.999 52.0405C911.562 51.3231 924.186 51.262 938.718 52.1779L929.972 57.4139C927.941 58.6198 926.216 63.7794 926.232 66.7104L926.461 167.552C926.476 175.642 930.17 177.688 938.26 183.886H938.276Z" fill="white"/>
</g>
<g clip-path="url(#clip2_35_276)">
<path d="M13.0849 259.57C7.39139 264.366 6.33872 270.895 0 273.99C71.7294 170.851 162.543 86.3723 273.334 25.711C267.233 35.6304 260.827 43.5773 253.843 52.4537C160.868 107.9 81.328 174.694 13.0849 259.57Z" fill="white"/>
<path d="M121.737 287.277C133.317 248.665 152.446 214.259 172.096 179.966C197.055 136.411 225.556 96.3484 255.439 55.9793C264.336 50.2204 272.429 44.9376 283.295 41.0152L214.611 131.616C177.88 180.068 149.514 232.578 121.749 287.265L121.737 287.277Z" fill="white"/>
<path d="M269.226 41.0492C289.498 10.3275 283.793 16.88 317.694 0L295.746 27.2868L269.226 41.0379V41.0492Z" fill="white"/>
</g>
<path d="M361.09 229.294C365.943 229.294 369.479 230.248 371.698 232.154C373.917 234.061 375.026 236.748 375.026 240.215C375.026 241.74 374.766 243.214 374.246 244.635C373.761 246.022 372.946 247.27 371.802 248.379C370.658 249.489 369.133 250.373 367.226 251.031C365.319 251.655 362.979 251.967 360.206 251.967H355.941V266.424H351.261V229.294H361.09ZM360.674 233.298H355.941V247.963H359.686C362.043 247.963 364.002 247.721 365.562 247.235C367.122 246.715 368.283 245.9 369.046 244.791C369.809 243.682 370.19 242.226 370.19 240.423C370.19 238.031 369.427 236.245 367.902 235.067C366.377 233.888 363.967 233.298 360.674 233.298ZM406.918 266.424H386.169V229.294H406.918V233.402H390.849V244.999H405.982V249.055H390.849V262.316H406.918V266.424ZM428.73 229.294C431.816 229.294 434.347 229.693 436.323 230.49C438.334 231.253 439.824 232.414 440.795 233.974C441.766 235.535 442.251 237.493 442.251 239.851C442.251 241.827 441.887 243.474 441.159 244.791C440.431 246.108 439.495 247.166 438.351 247.963C437.242 248.726 436.063 249.333 434.815 249.783L445.007 266.424H439.547L430.551 251.083H423.166V266.424H418.486V229.294H428.73ZM428.47 233.35H423.166V247.131H428.73C430.741 247.131 432.388 246.871 433.671 246.351C434.953 245.796 435.89 244.999 436.479 243.959C437.103 242.919 437.415 241.619 437.415 240.059C437.415 238.429 437.086 237.129 436.427 236.159C435.803 235.188 434.832 234.477 433.515 234.026C432.197 233.576 430.516 233.35 428.47 233.35ZM458.937 266.424H454.257V229.294H475.006V233.402H458.937V246.559H474.018V250.667H458.937V266.424ZM517.042 247.807C517.042 250.685 516.678 253.302 515.95 255.66C515.222 257.982 514.13 259.993 512.674 261.692C511.252 263.391 509.467 264.691 507.317 265.592C505.203 266.494 502.741 266.944 499.933 266.944C497.021 266.944 494.49 266.494 492.341 265.592C490.191 264.656 488.406 263.356 486.984 261.692C485.563 259.993 484.505 257.965 483.812 255.608C483.119 253.25 482.772 250.633 482.772 247.755C482.772 243.942 483.396 240.613 484.644 237.771C485.892 234.928 487.782 232.709 490.312 231.114C492.878 229.52 496.102 228.722 499.985 228.722C503.695 228.722 506.815 229.52 509.346 231.114C511.876 232.674 513.783 234.893 515.066 237.771C516.383 240.613 517.042 243.959 517.042 247.807ZM487.712 247.807C487.712 250.927 488.146 253.614 489.012 255.868C489.879 258.121 491.214 259.855 493.017 261.068C494.854 262.281 497.16 262.888 499.933 262.888C502.741 262.888 505.029 262.281 506.797 261.068C508.6 259.855 509.935 258.121 510.802 255.868C511.668 253.614 512.102 250.927 512.102 247.807C512.102 243.127 511.131 239.469 509.19 236.835C507.248 234.165 504.18 232.83 499.985 232.83C497.177 232.83 494.854 233.437 493.017 234.65C491.214 235.829 489.879 237.545 489.012 239.799C488.146 242.018 487.712 244.687 487.712 247.807ZM538.937 229.294C542.023 229.294 544.554 229.693 546.53 230.49C548.54 231.253 550.031 232.414 551.002 233.974C551.973 235.535 552.458 237.493 552.458 239.851C552.458 241.827 552.094 243.474 551.366 244.791C550.638 246.108 549.702 247.166 548.558 247.963C547.448 248.726 546.27 249.333 545.022 249.783L555.214 266.424H549.754L540.757 251.083H533.373V266.424H528.693V229.294H538.937ZM538.677 233.35H533.373V247.131H538.937C540.948 247.131 542.595 246.871 543.877 246.351C545.16 245.796 546.096 244.999 546.686 243.959C547.31 242.919 547.622 241.619 547.622 240.059C547.622 238.429 547.292 237.129 546.634 236.159C546.01 235.188 545.039 234.477 543.721 234.026C542.404 233.576 540.723 233.35 538.677 233.35ZM580.844 266.424L568.624 233.87H568.416C568.485 234.564 568.537 235.448 568.572 236.523C568.641 237.597 568.693 238.776 568.728 240.059C568.762 241.307 568.78 242.59 568.78 243.907V266.424H564.463V229.294H571.38L582.82 259.716H583.028L594.677 229.294H601.541V266.424H596.913V243.595C596.913 242.382 596.93 241.186 596.965 240.007C597 238.793 597.052 237.667 597.121 236.627C597.19 235.552 597.242 234.65 597.277 233.922H597.069L584.692 266.424H580.844ZM638.36 266.424L633.888 254.932H619.171L614.751 266.424H610.019L624.528 229.138H628.74L643.197 266.424H638.36ZM628.324 239.539C628.22 239.261 628.046 238.759 627.804 238.031C627.561 237.303 627.318 236.557 627.076 235.795C626.868 234.997 626.694 234.39 626.556 233.974C626.382 234.668 626.192 235.379 625.984 236.107C625.81 236.8 625.62 237.441 625.412 238.031C625.238 238.62 625.082 239.123 624.944 239.539L620.731 250.771H632.484L628.324 239.539ZM681.131 266.424H675.67L655.805 235.587H655.597C655.632 236.211 655.667 236.904 655.701 237.667C655.771 238.429 655.823 239.261 655.857 240.163C655.892 241.03 655.927 241.931 655.961 242.867C655.996 243.803 656.013 244.739 656.013 245.675V266.424H651.697V229.294H657.105L676.918 260.028H677.126C677.092 259.612 677.057 259.04 677.022 258.312C676.988 257.549 676.953 256.717 676.918 255.816C676.884 254.88 676.849 253.926 676.814 252.956C676.78 251.985 676.762 251.083 676.762 250.251V229.294H681.131V266.424ZM710.541 232.882C708.565 232.882 706.78 233.229 705.185 233.922C703.59 234.581 702.238 235.569 701.129 236.887C700.019 238.169 699.17 239.747 698.58 241.619C697.991 243.456 697.696 245.536 697.696 247.859C697.696 250.91 698.164 253.562 699.1 255.816C700.071 258.069 701.493 259.803 703.365 261.016C705.271 262.229 707.646 262.836 710.489 262.836C712.119 262.836 713.661 262.697 715.117 262.42C716.573 262.143 717.995 261.796 719.382 261.38V265.436C717.995 265.956 716.556 266.338 715.065 266.58C713.609 266.823 711.859 266.944 709.813 266.944C706.034 266.944 702.879 266.164 700.349 264.604C697.818 263.044 695.911 260.825 694.628 257.948C693.38 255.07 692.756 251.69 692.756 247.807C692.756 244.999 693.137 242.434 693.9 240.111C694.698 237.788 695.842 235.777 697.332 234.078C698.858 232.38 700.73 231.08 702.949 230.178C705.167 229.242 707.716 228.774 710.593 228.774C712.5 228.774 714.337 228.965 716.105 229.346C717.874 229.728 719.451 230.265 720.838 230.958L718.966 234.911C717.822 234.39 716.539 233.922 715.117 233.506C713.731 233.09 712.205 232.882 710.541 232.882ZM751.656 266.424H730.907V229.294H751.656V233.402H735.587V244.999H750.72V249.055H735.587V262.316H751.656V266.424ZM810.045 266.424H804.584L784.719 235.587H784.511C784.546 236.211 784.581 236.904 784.615 237.667C784.685 238.429 784.737 239.261 784.771 240.163C784.806 241.03 784.841 241.931 784.875 242.867C784.91 243.803 784.927 244.739 784.927 245.675V266.424H780.611V229.294H786.019L805.832 260.028H806.04C806.006 259.612 805.971 259.04 805.936 258.312C805.902 257.549 805.867 256.717 805.832 255.816C805.798 254.88 805.763 253.926 805.728 252.956C805.694 251.985 805.676 251.083 805.676 250.251V229.294H810.045V266.424ZM844.291 266.424H823.542V229.294H844.291V233.402H828.223V244.999H843.355V249.055H828.223V262.316H844.291V266.424ZM867.612 266.424H862.932V233.402H851.335V229.294H879.157V233.402H867.612V266.424ZM930.819 229.294L920.939 266.424H916.207L908.978 242.087C908.77 241.359 908.562 240.613 908.354 239.851C908.146 239.088 907.955 238.36 907.782 237.667C907.609 236.973 907.453 236.384 907.314 235.899C907.21 235.379 907.141 234.997 907.106 234.754C907.071 234.997 907.002 235.379 906.898 235.899C906.829 236.384 906.707 236.973 906.534 237.667C906.361 238.36 906.17 239.105 905.962 239.903C905.789 240.665 905.581 241.446 905.338 242.243L898.318 266.424H893.585L883.757 229.294H888.645L894.417 251.967C894.625 252.765 894.816 253.562 894.989 254.36C895.163 255.122 895.319 255.885 895.457 256.648C895.631 257.376 895.769 258.086 895.873 258.78C895.977 259.473 896.081 260.149 896.185 260.808C896.289 260.115 896.393 259.404 896.497 258.676C896.636 257.948 896.792 257.202 896.966 256.44C897.139 255.642 897.33 254.845 897.538 254.048C897.746 253.25 897.954 252.47 898.162 251.707L904.714 229.294H909.55L916.363 251.863C916.605 252.661 916.831 253.476 917.039 254.308C917.247 255.105 917.437 255.885 917.611 256.648C917.784 257.41 917.923 258.156 918.027 258.884C918.165 259.577 918.287 260.219 918.391 260.808C918.495 259.941 918.633 259.04 918.807 258.104C918.98 257.133 919.188 256.128 919.431 255.088C919.673 254.048 919.933 252.99 920.211 251.915L925.931 229.294H930.819ZM971.835 247.807C971.835 250.685 971.471 253.302 970.743 255.66C970.015 257.982 968.922 259.993 967.466 261.692C966.045 263.391 964.26 264.691 962.11 265.592C959.995 266.494 957.534 266.944 954.726 266.944C951.814 266.944 949.283 266.494 947.133 265.592C944.984 264.656 943.198 263.356 941.777 261.692C940.356 259.993 939.298 257.965 938.605 255.608C937.911 253.25 937.565 250.633 937.565 247.755C937.565 243.942 938.189 240.613 939.437 237.771C940.685 234.928 942.574 232.709 945.105 231.114C947.671 229.52 950.895 228.722 954.778 228.722C958.487 228.722 961.607 229.52 964.138 231.114C966.669 232.674 968.576 234.893 969.859 237.771C971.176 240.613 971.835 243.959 971.835 247.807ZM942.505 247.807C942.505 250.927 942.938 253.614 943.805 255.868C944.672 258.121 946.007 259.855 947.809 261.068C949.647 262.281 951.952 262.888 954.726 262.888C957.534 262.888 959.822 262.281 961.59 261.068C963.393 259.855 964.728 258.121 965.594 255.868C966.461 253.614 966.894 250.927 966.894 247.807C966.894 243.127 965.924 239.469 963.982 236.835C962.041 234.165 958.973 232.83 954.778 232.83C951.97 232.83 949.647 233.437 947.809 234.65C946.007 235.829 944.672 237.545 943.805 239.799C942.938 242.018 942.505 244.687 942.505 247.807ZM993.73 229.294C996.815 229.294 999.346 229.693 1001.32 230.49C1003.33 231.253 1004.82 232.414 1005.79 233.974C1006.77 235.535 1007.25 237.493 1007.25 239.851C1007.25 241.827 1006.89 243.474 1006.16 244.791C1005.43 246.108 1004.49 247.166 1003.35 247.963C1002.24 248.726 1001.06 249.333 999.814 249.783L1010.01 266.424H1004.55L995.55 251.083H988.166V266.424H983.485V229.294H993.73ZM993.47 233.35H988.166V247.131H993.73C995.741 247.131 997.387 246.871 998.67 246.351C999.953 245.796 1000.89 244.999 1001.48 243.959C1002.1 242.919 1002.41 241.619 1002.41 240.059C1002.41 238.429 1002.09 237.129 1001.43 236.159C1000.8 235.188 999.832 234.477 998.514 234.026C997.197 233.576 995.515 233.35 993.47 233.35ZM1046.4 266.424H1040.89L1027.73 248.691L1023.94 252.019V266.424H1019.26V229.294H1023.94V247.599C1024.98 246.42 1026.03 245.242 1027.11 244.063C1028.18 242.884 1029.26 241.706 1030.33 240.527L1040.37 229.294H1045.83L1031.11 245.467L1046.4 266.424Z" fill="white"/>
</g>
<defs>
<clipPath id="clip0_35_276">
<rect width="1047" height="287" fill="white"/>
</clipPath>
<clipPath id="clip1_35_276">
<rect width="693.114" height="141.081" fill="white" transform="translate(349.27 47.6137)"/>
</clipPath>
<clipPath id="clip2_35_276">
<rect width="317.694" height="287.277" fill="white"/>
</clipPath>
</defs>
</svg>
